<svg width="24" height="24" viewBox="0 0 24 24" fill="none" xmlns="http://www.w3.org/2000/svg">
<path d="M6 22C5.45 22 4.979 21.804 4.587 21.412C4.195 21.02 3.99934 20.5493 4 20V4C4 3.45 4.196 2.979 4.588 2.587C4.98 2.195 5.45067 1.99934 6 2H13.175C13.4417 2 13.696 2.05 13.938 2.15C14.18 2.25 14.3923 2.39167 14.575 2.575L19.425 7.425C19.6083 7.60834 19.75 7.821 19.85 8.063C19.95 8.305 20 8.559 20 8.825V12H18V9H14C13.7167 9 13.479 8.904 13.287 8.712C13.095 8.52 12.9993 8.28267 13 8V4H6V20H12V22H6ZM18.3 14.525L19.375 15.6L15.5 19.45V20.5H16.55L20.425 16.65L21.475 17.7L17.475 21.7C17.375 21.8 17.2623 21.875 17.137 21.925C17.0117 21.975 16.8827 22 16.75 22H14.5C14.3667 22 14.25 21.95 14.15 21.85C14.05 21.75 14 21.6333 14 21.5V19.25C14 19.1167 14.025 18.9873 14.075 18.862C14.125 18.7367 14.2 18.6243 14.3 18.525L18.3 14.525ZM21.475 17.7L18.3 14.525L19.75 13.075C19.9333 12.8917 20.1667 12.8 20.45 12.8C20.7333 12.8 20.9667 12.8917 21.15 13.075L22.925 14.85C23.1083 15.0333 23.2 15.2667 23.2 15.55C23.2 15.8333 23.1083 16.0667 22.925 16.25L21.475 17.7Z" fill="#2D2D2D"/>
</svg>
