<svg width="24" height="24" viewBox="0 0 24 24" fill="none" xmlns="http://www.w3.org/2000/svg">
<path d="M19.1062 12.001H17.3168C17.0795 12.001 16.8519 12.0959 16.6841 12.2646C16.5163 12.4334 16.4221 12.6623 16.4221 12.9009C16.4221 13.1396 16.5163 13.3685 16.6841 13.5373C16.8519 13.706 17.0795 13.8008 17.3168 13.8008V15.6006H16.2557C16.362 15.3125 16.418 15.008 16.4212 14.7007C16.4212 14.1065 16.2262 13.5288 15.8665 13.0573C15.5068 12.5859 15.0025 12.247 14.4318 12.0932C13.8611 11.9393 13.2559 11.9792 12.71 12.2066C12.1641 12.434 11.7081 12.8362 11.4126 13.3509C11.353 13.4533 11.314 13.5665 11.298 13.6841C11.2821 13.8017 11.2894 13.9213 11.3195 14.036C11.3497 14.1508 11.4021 14.2584 11.4738 14.3526C11.5454 14.4469 11.6349 14.526 11.7371 14.5853C11.8393 14.6447 11.9522 14.6831 12.0692 14.6984C12.1862 14.7137 12.305 14.7056 12.4189 14.6745C12.5328 14.6434 12.6394 14.5899 12.7327 14.5172C12.8259 14.4445 12.904 14.354 12.9623 14.2508C13.0408 14.114 13.1537 14.0004 13.2897 13.9214C13.4258 13.8424 13.58 13.8008 13.7371 13.8008C13.9744 13.8008 14.2019 13.8956 14.3697 14.0644C14.5375 14.2332 14.6318 14.4621 14.6318 14.7007C14.6318 14.9394 14.5375 15.1683 14.3697 15.3371C14.2019 15.5058 13.9744 15.6006 13.7371 15.6006C13.4998 15.6006 13.2722 15.6954 13.1044 15.8642C12.9366 16.033 12.8424 16.2619 12.8424 16.5005C12.8424 16.7392 12.9366 16.9681 13.1044 17.1368C13.2722 17.3056 13.4998 17.4004 13.7371 17.4004C13.9744 17.4004 14.2019 17.4952 14.3697 17.664C14.5375 17.8328 14.6318 18.0616 14.6318 18.3003C14.6318 18.539 14.5375 18.7679 14.3697 18.9366C14.2019 19.1054 13.9744 19.2002 13.7371 19.2002C13.58 19.2002 13.4258 19.1586 13.2897 19.0796C13.1537 19.0007 13.0408 18.8871 12.9623 18.7503C12.904 18.6471 12.8259 18.5565 12.7327 18.4838C12.6394 18.4111 12.5328 18.3577 12.4189 18.3266C12.305 18.2955 12.1862 18.2874 12.0692 18.3027C11.9522 18.3179 11.8393 18.3564 11.7371 18.4157C11.6349 18.4751 11.5454 18.5541 11.4738 18.6484C11.4021 18.7427 11.3497 18.8503 11.3195 18.965C11.2894 19.0798 11.2821 19.1994 11.298 19.3169C11.314 19.4345 11.353 19.5478 11.4126 19.6502C11.7081 20.1648 12.1641 20.567 12.71 20.7944C13.2559 21.0218 13.8611 21.0617 14.4318 20.9079C15.0025 20.7541 15.5068 20.4152 15.8665 19.9437C16.2262 19.4722 16.4212 18.8946 16.4212 18.3003C16.418 17.993 16.362 17.6886 16.2557 17.4004H17.3159V20.1001C17.3159 20.3388 17.4102 20.5677 17.5779 20.7364C17.7457 20.9052 17.9733 21 18.2106 21C18.4479 21 18.6755 20.9052 18.8432 20.7364C19.011 20.5677 19.1053 20.3388 19.1053 20.1001V13.8008C19.3426 13.8008 19.5702 13.706 19.7379 13.5373C19.9057 13.3685 20 13.1396 20 12.9009C20 12.6623 19.9057 12.4334 19.7379 12.2646C19.5702 12.0959 19.3435 12.001 19.1062 12.001ZM8.39661 11.3198C8.42447 11.4352 8.47475 11.5439 8.54456 11.6396C8.61436 11.7353 8.70231 11.8162 8.80334 11.8776C8.90436 11.939 9.01646 11.9797 9.13318 11.9973C9.24991 12.0149 9.36895 12.0092 9.48344 11.9803C9.59793 11.9515 9.70562 11.9001 9.8003 11.8292C9.89497 11.7583 9.97477 11.6693 10.0351 11.5672C10.0954 11.4652 10.135 11.3522 10.1517 11.2346C10.1684 11.1171 10.1618 10.9974 10.1323 10.8825L8.56034 4.55621C8.45037 4.11183 8.19576 3.71722 7.83704 3.43521C7.47832 3.1532 7.03611 3 6.58081 3C6.12551 3 5.6833 3.1532 5.32458 3.43521C4.96586 3.71722 4.71125 4.11183 4.60128 4.55621L3.02839 10.8825C2.99889 10.9974 2.9923 11.1171 3.00899 11.2346C3.02568 11.3522 3.06532 11.4652 3.12564 11.5672C3.18596 11.6693 3.26575 11.7583 3.36043 11.8292C3.4551 11.9001 3.56279 11.9515 3.67728 11.9803C3.79178 12.0092 3.91082 12.0149 4.02754 11.9973C4.14426 11.9797 4.25636 11.939 4.35739 11.8776C4.45841 11.8162 4.54636 11.7353 4.61616 11.6396C4.68597 11.5439 4.73625 11.4352 4.76412 11.3198L5.26425 9.30136H7.89468L8.39661 11.3198ZM5.7125 7.50157L6.33611 4.99356C6.35492 4.94372 6.38835 4.9008 6.43198 4.87053C6.4756 4.84025 6.52736 4.82403 6.58036 4.82403C6.63337 4.82403 6.68512 4.84025 6.72874 4.87053C6.77237 4.9008 6.80581 4.94372 6.82462 4.99356L7.44822 7.50157H5.7125ZM12.8433 7.50157H13.738C13.9752 7.50181 14.2026 7.59669 14.3704 7.7654C14.5381 7.93412 14.6324 8.16287 14.6327 8.40146V9.30136C14.6327 9.54003 14.7269 9.76892 14.8947 9.93768C15.0625 10.1064 15.2901 10.2013 15.5274 10.2013C15.7647 10.2013 15.9922 10.1064 16.16 9.93768C16.3278 9.76892 16.4221 9.54003 16.4221 9.30136V8.40146C16.4214 7.68568 16.1384 6.99942 15.6351 6.49329C15.1319 5.98715 14.4496 5.70249 13.738 5.70178H12.8433C12.606 5.70178 12.3784 5.79659 12.2106 5.96535C12.0428 6.13411 11.9486 6.36301 11.9486 6.60167C11.9486 6.84034 12.0428 7.06923 12.2106 7.23799C12.3784 7.40676 12.606 7.50157 12.8433 7.50157ZM9.26447 15.6006H8.36977C8.13255 15.6004 7.90512 15.5055 7.73738 15.3368C7.56964 15.1681 7.4753 14.9393 7.47506 14.7007V13.8008C7.47506 13.5622 7.3808 13.3333 7.21301 13.1645C7.04522 12.9958 6.81765 12.9009 6.58036 12.9009C6.34307 12.9009 6.1155 12.9958 5.94771 13.1645C5.77992 13.3333 5.68566 13.5622 5.68566 13.8008V14.7007C5.68637 15.4165 5.96939 16.1028 6.4726 16.6089C6.97581 17.115 7.65811 17.3997 8.36977 17.4004H9.26447C9.50176 17.4004 9.72933 17.3056 9.89712 17.1368C10.0649 16.9681 10.1592 16.7392 10.1592 16.5005C10.1592 16.2619 10.0649 16.033 9.89712 15.8642C9.72933 15.6954 9.50176 15.6006 9.26447 15.6006Z" fill="#2D2D2D"/>
</svg>
