<svg width="360" height="289" viewBox="0 0 360 289" fill="none" xmlns="http://www.w3.org/2000/svg">
<path d="M192.929 186.565C178.509 186.565 165.372 181.078 155.488 172.079C165.078 179.925 177.336 184.634 190.693 184.634C221.414 184.634 246.319 159.729 246.319 129.007C246.319 127.892 246.286 126.782 246.221 125.682L248.215 124.761C248.44 126.789 248.555 128.851 248.555 130.938C248.555 161.659 223.65 186.565 192.929 186.565ZM239.893 103.03C236.869 97.312 232.875 92.1851 228.133 87.8665C233.17 91.9886 237.473 96.9793 240.81 102.606L239.893 103.03Z" fill="#F0F4F8"/>
<path d="M246.319 129.007C246.319 159.729 221.414 184.634 190.692 184.634C159.971 184.634 135.066 159.729 135.066 129.007C135.066 98.2856 159.971 73.381 190.692 73.381C221.414 73.381 246.319 98.2856 246.319 129.007Z" fill="#D3FFE9"/>
<path d="M69.5011 178.746C54.4307 178.746 44.2849 166.229 39.5388 158.678C36.6368 154.061 34.313 149.189 32.4227 145.031C32.0736 144.263 31.7364 143.444 31.4104 142.653C30.0563 139.366 28.6559 135.966 25.8937 134.574C24.9916 134.118 24.109 133.894 23.2183 133.859V129.661C24.6896 129.694 26.2136 130.041 27.7811 130.831C31.9359 132.927 33.7155 137.246 35.2852 141.056C35.6117 141.849 35.9199 142.597 36.2379 143.296C38.0704 147.327 40.3172 152.042 43.0868 156.447C52.8909 172.047 63.6662 174.555 69.5748 174.555C69.7761 174.555 69.9729 174.551 70.1627 174.546C83.618 174.162 97.4906 168.328 109.824 163.019L108.957 160.979L113.893 158.88L112.501 155.605C112.031 154.502 112.545 153.227 113.648 152.757L116.157 158.659L119.32 166.098C119.671 166.926 120.475 167.421 121.321 167.421C121.604 167.421 121.892 167.365 122.17 167.248L137.039 160.925L137.195 161.293C137.332 161.614 137.646 161.809 137.974 161.809C138.084 161.809 138.197 161.786 138.306 161.741L140.836 160.665C141.265 160.482 141.465 159.985 141.283 159.554L141.127 159.188L142.323 158.68L142.478 159.046C142.615 159.369 142.928 159.562 143.257 159.562C143.368 159.562 143.48 159.54 143.589 159.494L144.033 159.305C144.645 160.246 145.285 161.166 145.95 162.065C145.869 162.261 145.712 162.426 145.502 162.515L142.972 163.591C142.864 163.636 142.751 163.659 142.641 163.659C142.313 163.659 141.999 163.465 141.862 163.143L141.706 162.777L140.511 163.285L140.667 163.652C140.85 164.082 140.649 164.579 140.219 164.762L137.689 165.837C137.581 165.883 137.468 165.905 137.359 165.905C137.029 165.905 136.716 165.712 136.579 165.389L136.423 165.023L121.553 171.345C121.276 171.463 120.988 171.519 120.704 171.519C119.859 171.519 119.055 171.022 118.704 170.195L117.275 166.835L112.339 168.934L111.464 166.875C98.7892 172.332 84.5217 178.328 70.2825 178.735C70.0203 178.743 69.7604 178.746 69.5011 178.746Z" fill="#147846"/>
<path d="M145.95 162.065C145.285 161.166 144.645 160.246 144.033 159.305L146.119 158.419C146.549 158.236 146.749 157.739 146.567 157.308L146.41 156.942L148.519 156.045C149.625 155.575 150.139 154.299 149.669 153.195L145.124 142.504L154.103 138.687L159.752 151.973L148.776 156.64L149.053 157.291C149.523 158.397 149.008 159.672 147.904 160.142L145.794 161.038L145.95 161.406C146.043 161.624 146.036 161.862 145.95 162.065Z" fill="#15BD68"/>
<path d="M142.478 159.046C142.661 159.476 143.158 159.677 143.589 159.494L146.119 158.419C146.549 158.236 146.749 157.739 146.567 157.308L146.41 156.942L148.52 156.045C149.625 155.575 150.14 154.299 149.67 153.195L143.466 138.606C142.997 137.5 141.721 136.987 140.617 137.456L138.507 138.352L138.352 137.986C138.168 137.556 137.672 137.355 137.241 137.538L134.711 138.613C134.281 138.797 134.08 139.293 134.263 139.724L134.419 140.091L133.224 140.599L133.068 140.232C132.885 139.803 132.388 139.602 131.958 139.785L129.428 140.86C128.998 141.043 128.797 141.54 128.98 141.97L129.136 142.337L114.267 148.659C113.162 149.129 112.648 150.405 113.117 151.509L119.32 166.098C119.79 167.202 121.066 167.717 122.17 167.248L137.04 160.925L137.195 161.293C137.378 161.723 137.875 161.924 138.306 161.741L140.836 160.665C141.266 160.482 141.466 159.985 141.284 159.554L141.127 159.188L142.323 158.68L142.478 159.046Z" fill="#147846"/>
<mask id="mask0_159_2402" style="mask-type:luminance" maskUnits="userSpaceOnUse" x="112" y="137" width="38" height="31">
<path d="M142.478 159.046C142.661 159.476 143.158 159.677 143.589 159.494L146.119 158.419C146.549 158.236 146.749 157.739 146.567 157.308L146.41 156.942L148.52 156.045C149.625 155.575 150.14 154.299 149.67 153.195L143.466 138.606C142.997 137.5 141.721 136.987 140.617 137.456L138.507 138.352L138.352 137.986C138.168 137.556 137.672 137.355 137.241 137.538L134.711 138.613C134.281 138.797 134.08 139.293 134.263 139.724L134.419 140.091L133.224 140.599L133.068 140.232C132.885 139.803 132.388 139.602 131.958 139.785L129.428 140.86C128.998 141.043 128.797 141.54 128.98 141.97L129.136 142.337L114.267 148.659C113.162 149.129 112.648 150.405 113.117 151.509L119.32 166.098C119.79 167.202 121.066 167.717 122.17 167.248L137.04 160.925L137.195 161.293C137.378 161.723 137.875 161.924 138.306 161.741L140.836 160.665C141.266 160.482 141.466 159.985 141.284 159.554L141.127 159.188L142.323 158.68L142.478 159.046Z" fill="white"/>
</mask>
<g mask="url(#mask0_159_2402)">
<path d="M116.157 158.659L113.117 151.509C113 151.232 112.944 150.945 112.943 150.664C112.942 149.816 113.438 149.011 114.267 148.658L129.136 142.337L128.98 141.97C128.934 141.862 128.913 141.751 128.912 141.641C128.912 141.311 129.105 140.997 129.428 140.86L131.958 139.785C132.066 139.739 132.178 139.716 132.289 139.716C132.618 139.716 132.931 139.91 133.068 140.232L133.224 140.598L134.419 140.09L134.263 139.724C134.218 139.616 134.196 139.504 134.196 139.395C134.195 139.064 134.389 138.751 134.711 138.613L137.241 137.538C137.349 137.492 137.462 137.47 137.572 137.47C137.902 137.47 138.214 137.663 138.352 137.986L138.507 138.352L140.617 137.456C140.894 137.338 141.182 137.283 141.465 137.283C142.311 137.283 143.115 137.778 143.466 138.606L146.546 145.848L116.157 158.659Z" fill="#147846"/>
</g>
<path d="M149.393 152.544L143.743 139.257L154.719 134.591L160.369 147.877L149.393 152.544Z" fill="#15BD68"/>
<path d="M152.289 138.784L151.446 136.799L154.17 135.641L155.014 137.625L152.289 138.784Z" fill="white"/>
<path d="M153.698 142.097L152.854 140.113L155.579 138.954L156.422 140.938L153.698 142.097Z" fill="white"/>
<path d="M155.106 145.41L154.263 143.426L156.987 142.267L157.831 144.252L155.106 145.41Z" fill="white"/>
<path d="M156.514 148.723L155.67 146.738L158.396 145.58L159.239 147.564L156.514 148.723Z" fill="white"/>
<path d="M141.127 159.188L133.224 140.599L134.419 140.091L142.323 158.68L141.127 159.188Z" fill="#15BD68"/>
<path d="M112.44 165.107L109.058 157.152L114.37 154.893L117.752 162.848L112.44 165.107Z" fill="#15BD68"/>
<path d="M-33.9359 135.856C-34.9758 134.444 -35.9055 132.915 -36.7095 131.276C-40.8537 122.831 -42.4447 114.144 -41.4385 105.456C-40.554 97.8188 -37.7618 90.2289 -32.9025 82.2515C-24.1498 67.8822 -10.5335 55.3931 1.48003 44.3732C3.26107 42.7398 4.94328 41.1968 6.58643 39.6695C9.69018 36.7833 13.1786 33.3646 15.2908 29.305C17.4315 25.1907 17.8352 20.7002 16.3707 17.2938C15.0718 14.2703 12.1683 11.6007 7.74257 9.35993C-0.174613 5.3506 -8.60304 3.66022 -17.3081 4.3357C-24.9839 4.93191 -33.1543 7.38709 -41.5927 11.6365C-57.0685 19.4285 -71.0448 31.7446 -83.8428 43.892L-93.115 52.6934L-96 49.6543L-86.7281 40.8529C-73.6971 28.4833 -59.4384 15.9294 -43.4772 7.89285C-34.55 3.39784 -25.8542 0.795302 -17.6325 0.157783C-8.15064 -0.577988 1.0236 1.25975 9.63581 5.62078C14.9617 8.31712 18.5238 11.6867 20.221 15.6391C22.2062 20.2569 21.7642 25.9432 19.0087 31.2388C16.5881 35.8912 12.8003 39.6147 9.44008 42.7387C7.78655 44.2761 6.09931 45.8236 4.31303 47.4626C-7.49548 58.2926 -20.8795 70.5696 -29.3232 84.4309C-38.9031 100.158 -40.0885 114.878 -32.9472 129.43C-29.378 136.703 -22.9429 141.47 -15.7333 142.184C-7.741 142.974 -0.375922 138.23 6.74676 133.643C8.0994 132.772 9.49814 131.871 10.8565 131.04C11.3601 130.733 11.8708 130.408 12.3887 130.08C16.647 127.376 21.9466 124.011 27.8818 127.004C32.0366 129.1 33.8161 133.418 35.3859 137.229C35.7123 138.02 36.0206 138.77 36.3387 139.469C38.1712 143.499 40.4179 148.214 43.1874 152.62C53.3257 168.751 64.5037 170.882 70.2634 170.718C84.0796 170.324 98.3362 164.183 110.914 158.765L112.736 157.981L114.391 161.831L112.572 162.614C99.6488 168.18 85.001 174.49 70.3832 174.907C54.8812 175.351 44.4671 162.532 39.6394 154.851C36.7375 150.234 34.4138 145.361 32.5234 141.204C32.1743 140.435 31.8371 139.617 31.511 138.825C30.1569 135.538 28.7567 132.139 25.9944 130.746C22.4492 128.958 19.1949 130.722 14.6349 133.617C14.0968 133.959 13.5659 134.296 13.0421 134.616C11.7259 135.421 10.4095 136.269 9.01593 137.166C1.64952 141.91 -6.69975 147.288 -16.1456 146.354C-23.1558 145.661 -29.5276 141.837 -33.9359 135.856Z" fill="#15BD68"/>
<path d="M358.167 140.226C350.647 135.814 343.265 128.809 336.833 122.706C332.839 118.916 329.39 115.643 326.53 113.568C312.92 103.695 300.428 98.8014 288.7 98.8014C284.855 98.8014 281.093 99.3272 277.401 100.376L278.831 103.474L274.58 105.437C274.558 105.231 274.503 105.026 274.412 104.828L271.12 97.6994L275.279 95.7801L276.559 98.5513C280.539 97.3901 284.588 96.8073 288.722 96.8073C300.86 96.8073 313.733 101.829 327.697 111.959C330.662 114.112 334.155 117.426 338.201 121.264C344.264 127.019 351.195 133.596 358.167 137.913V140.226ZM248.215 124.761C248.018 122.967 247.734 121.2 247.369 119.462L273.457 107.42C273.48 107.41 273.503 107.398 273.525 107.386L274.157 108.755C274.609 109.734 274.182 110.895 273.203 111.347L258.213 118.266L258.505 118.898C258.738 119.405 258.517 120.006 258.01 120.24L248.215 124.761Z" fill="#147846"/>
<path d="M246.221 125.682C246.113 123.849 245.917 122.043 245.635 120.263L247.369 119.462C247.734 121.201 248.018 122.967 248.215 124.761L246.221 125.682Z" fill="#8DC53D"/>
<path d="M214.662 130.811C213.762 130.811 212.9 130.298 212.498 129.427C211.946 128.233 212.468 126.818 213.662 126.267L228.517 119.366L226.568 115.142C226.126 114.186 226.523 113.057 227.453 112.583L229.723 117.5L232.75 124.059C233.08 124.773 233.787 125.194 234.525 125.194C234.799 125.194 235.077 125.136 235.342 125.013L245.635 120.263C245.917 122.043 246.113 123.849 246.222 125.682L243.218 127.068C243.081 127.131 242.937 127.161 242.795 127.161C242.413 127.161 242.047 126.944 241.877 126.574L241.585 125.941L235.088 128.941C234.823 129.063 234.544 129.121 234.271 129.121C233.533 129.121 232.826 128.7 232.496 127.987L230.521 123.708L215.657 130.591C215.335 130.741 214.995 130.811 214.662 130.811Z" fill="#15BD68"/>
<path d="M268.482 91.9842L274.412 104.828C274.864 105.808 274.437 106.968 273.457 107.42L235.343 125.014C234.363 125.466 233.202 125.038 232.75 124.059L226.821 111.215C226.369 110.236 226.797 109.076 227.776 108.623L265.891 91.0296C266.87 90.5774 268.031 91.0051 268.482 91.9842Z" fill="#147846"/>
<mask id="mask1_159_2402" style="mask-type:luminance" maskUnits="userSpaceOnUse" x="226" y="90" width="49" height="36">
<path d="M268.482 91.9842L274.412 104.828C274.864 105.808 274.437 106.968 273.457 107.42L235.343 125.014C234.363 125.466 233.202 125.038 232.75 124.059L226.821 111.215C226.369 110.236 226.797 109.076 227.776 108.623L265.891 91.0296C266.87 90.5774 268.031 91.0051 268.482 91.9842Z" fill="white"/>
</mask>
<g mask="url(#mask1_159_2402)">
<path d="M229.723 117.5L226.821 111.215C226.7 110.951 226.642 110.674 226.642 110.401C226.64 109.662 227.061 108.954 227.776 108.623L265.891 91.0295C266.157 90.9067 266.435 90.8486 266.708 90.8486C267.446 90.8486 268.153 91.2695 268.482 91.9841L271.567 98.6663L229.723 117.5Z" fill="#147846"/>
</g>
<path d="M250.61 97.3164L258.759 114.972C258.993 115.478 258.772 116.079 258.265 116.312L243.473 123.141C242.966 123.374 242.365 123.153 242.131 122.646L233.982 104.992C233.748 104.485 233.969 103.885 234.476 103.65L249.269 96.8218C249.776 96.5884 250.376 96.8095 250.61 97.3164Z" fill="#15BD68"/>
<path d="M256.936 114.217C257.104 114.582 256.945 115.014 256.581 115.181L243.725 121.116C243.36 121.284 242.928 121.125 242.761 120.761C242.592 120.396 242.752 119.965 243.116 119.796L255.971 113.862C256.335 113.693 256.767 113.853 256.936 114.217Z" fill="#147846"/>
<path d="M255.549 111.212C255.717 111.576 255.558 112.008 255.193 112.177L242.338 118.111C241.974 118.28 241.542 118.12 241.374 117.756C241.205 117.391 241.364 116.959 241.729 116.792L254.584 110.857C254.948 110.689 255.38 110.848 255.549 111.212Z" fill="#147846"/>
<path d="M254.161 108.208C254.33 108.572 254.171 109.004 253.806 109.172L240.951 115.107C240.587 115.274 240.155 115.116 239.986 114.752C239.819 114.386 239.977 113.954 240.341 113.787L253.198 107.853C253.562 107.684 253.994 107.843 254.161 108.208Z" fill="#147846"/>
<path d="M252.774 105.203C252.943 105.567 252.783 105.999 252.419 106.167L239.564 112.101C239.199 112.27 238.768 112.111 238.599 111.746C238.431 111.382 238.59 110.95 238.954 110.782L251.81 104.848C252.175 104.68 252.606 104.838 252.774 105.203Z" fill="#147846"/>
<path d="M251.388 102.198C251.556 102.563 251.397 102.995 251.033 103.162L238.177 109.097C237.812 109.265 237.38 109.106 237.213 108.742C237.044 108.378 237.204 107.946 237.568 107.777L250.423 101.843C250.787 101.675 251.219 101.834 251.388 102.198Z" fill="#147846"/>
<path d="M250.001 99.1934C250.168 99.5585 250.01 99.9894 249.645 100.158L236.789 106.092C236.425 106.261 235.993 106.101 235.826 105.737C235.657 105.373 235.816 104.941 236.181 104.773L249.036 98.8383C249.4 98.6697 249.832 98.8294 250.001 99.1934Z" fill="#147846"/>
<path d="M228.787 115.475L230.784 119.799L215.912 126.665C214.718 127.215 213.303 126.694 212.752 125.5C212.201 124.306 212.722 122.891 213.916 122.339L228.787 115.475Z" fill="#15BD68"/>
<path d="M275.534 91.8524L279.086 99.5473L273.223 102.254L269.671 94.5588L275.534 91.8524Z" fill="#15BD68"/>
<path d="M274.823 95.2532C291.057 89.6942 308.434 93.8744 327.951 108.033C330.917 110.184 334.41 113.499 338.455 117.338C348.832 127.184 361.745 139.439 373.057 138.661C377.384 138.364 381.101 136.203 384.42 132.052C395.266 118.486 391.887 100.061 388.906 83.8047C388.763 83.022 388.62 82.2449 388.481 81.4757C388.223 80.0544 387.952 78.6174 387.678 77.1705C385.548 65.8916 383.344 54.2298 386.042 43.0682C387.676 36.3145 391.599 31.3126 397.388 28.6018C403.886 25.5593 412.171 25.9133 419.547 29.5474C427.412 33.4228 433.788 40.6566 437.986 50.4661C441.496 58.669 443.411 68.4808 443.379 78.0927C443.328 93.8476 440.089 109.499 436.958 124.632L436.802 125.391C436.596 126.381 436.386 127.376 436.177 128.375C433.425 141.452 430.577 154.975 436.054 167.537C440.492 177.719 449.264 182.238 455.989 182.2L456 184.188C451.459 184.212 446.933 182.594 442.91 179.507C439.222 176.677 436.14 172.708 434.233 168.331C428.502 155.187 431.415 141.35 434.233 127.965C434.443 126.97 434.651 125.977 434.856 124.989L435.013 124.229C438.124 109.193 441.341 93.641 441.393 78.086C441.423 68.7387 439.565 59.2072 436.159 51.2488C432.15 41.8803 426.102 34.9937 418.669 31.3305C411.828 27.9598 404.188 27.6126 398.231 30.4016C393.007 32.8467 389.461 37.3886 387.975 43.536C385.375 54.2812 387.54 65.7297 389.631 76.802C389.906 78.2535 390.178 79.6949 390.436 81.1206C390.575 81.8899 390.717 82.6647 390.861 83.4463C393.918 100.121 397.383 119.02 385.972 133.292C382.337 137.838 378.037 140.312 373.193 140.644C361.011 141.481 347.746 128.893 337.088 118.779C333.094 114.988 329.644 111.716 326.784 109.64C307.829 95.8896 291.043 91.7988 275.467 97.1334L274.823 95.2532Z" fill="#15BD68"/>
<path d="M195.946 96.0783C195.946 94.025 195.554 92.4854 194.769 91.4582C193.983 90.4322 192.624 89.9186 190.693 89.9186C188.76 89.9186 187.401 90.4322 186.616 91.4582C185.831 92.4854 185.439 94.025 185.439 96.0783V114.593L188.156 142.166V142.094C188.276 143.011 188.591 143.64 189.098 143.977C189.605 144.315 190.137 144.485 190.693 144.485C191.247 144.485 191.773 144.322 192.269 143.996C192.764 143.669 193.072 143.059 193.192 142.166L195.946 114.593V96.0783ZM187.369 152.735C187.555 152.296 187.813 151.914 188.139 151.588C188.466 151.261 188.848 151.004 189.286 150.817C189.723 150.629 190.192 150.535 190.693 150.535C191.193 150.535 191.662 150.629 192.099 150.817C192.537 151.004 192.919 151.261 193.246 151.588C193.572 151.914 193.829 152.296 194.017 152.735C194.205 153.173 194.298 153.641 194.298 154.142C194.298 154.642 194.205 155.111 194.017 155.548C193.829 155.986 193.572 156.368 193.246 156.694C192.919 157.021 192.537 157.278 192.099 157.465C191.662 157.653 191.193 157.747 190.693 157.747C190.192 157.747 189.723 157.653 189.286 157.465C188.848 157.278 188.466 157.021 188.139 156.694C187.813 156.368 187.555 155.986 187.369 155.548C187.18 155.111 187.087 154.642 187.087 154.142C187.087 153.641 187.18 153.173 187.369 152.735Z" fill="#15BD68"/>
<path d="M23.2183 101.451V95.5536C26.8658 93.4412 30.4189 91.1446 33.8607 88.6738C42.7807 82.2684 50.8208 74.7834 57.7582 66.4253C59.3938 64.4547 61.0301 62.3669 62.6126 60.3494C69.1076 52.0661 75.8236 43.5003 85.5279 38.7072C91.2647 35.8735 97.9567 34.4523 105.519 34.4523C109.618 34.4523 113.973 34.8698 118.57 35.7061C124.403 36.7668 130.159 38.36 135.724 39.9008C140.326 41.1747 145.085 42.4921 149.795 43.478C157.309 45.0489 165.099 45.8416 173.013 45.8416C174.544 45.8416 176.079 45.8115 177.618 45.7523C186.779 45.3984 196.109 43.9916 205.347 41.5699C217.136 38.4806 228.756 33.731 239.667 27.5858H249.636C236.258 36.1393 221.587 42.6228 206.65 46.5383C197.05 49.0538 187.35 50.5164 177.816 50.8837C176.212 50.9462 174.607 50.9775 173.011 50.9775C164.744 50.9775 156.604 50.1479 148.744 48.5045C143.873 47.4862 139.033 46.1464 134.354 44.8502C128.898 43.3396 123.256 41.7776 117.651 40.7582C113.354 39.9778 109.304 39.587 105.517 39.587C98.754 39.587 92.8252 40.8308 87.8024 43.3116C79.1449 47.5878 72.795 55.6869 66.6542 63.518C65.05 65.5645 63.3913 67.6792 61.71 69.7056C54.4934 78.3998 46.1315 86.1851 36.8564 92.845C32.4736 95.9924 27.9175 98.8662 23.2183 101.451Z" fill="#147846"/>
<path d="M6.98661 106.771L5.1416 101.978C15.2785 98.0757 24.9411 92.8494 33.861 86.4441C42.7808 80.0387 50.821 72.5537 57.7583 64.1957C59.394 62.225 61.0304 60.1383 62.6128 58.1197C69.1078 49.8364 75.8238 41.2707 85.5281 36.4775C94.3743 32.1076 105.491 31.0983 118.57 33.4764C124.403 34.5371 130.159 36.1303 135.724 37.6711C140.327 38.945 145.085 40.2624 149.796 41.2483C158.763 43.124 168.124 43.8888 177.619 43.5226C186.78 43.1687 196.109 41.7619 205.347 39.3402C223.267 34.6443 240.793 26.1153 256.034 14.6746L259.117 18.7822C243.35 30.6182 225.206 39.4452 206.65 44.3086C197.05 46.8241 187.35 48.2867 177.816 48.6552C167.904 49.037 158.122 48.2365 148.744 46.2748C143.874 45.2565 139.034 43.9167 134.354 42.6216C128.898 41.111 123.256 39.5479 117.652 38.5296C105.681 36.3525 95.6386 37.2122 87.8026 41.082C79.1451 45.3582 72.7952 53.4572 66.6544 61.2883C65.0502 63.3348 63.3915 65.4495 61.7102 67.4759C54.4936 76.1701 46.1316 83.9554 36.8566 90.6164C27.5814 97.2763 17.5317 102.711 6.98661 106.771Z" fill="#15BD68"/>
<path d="M197.845 288.096L196 283.303C206.137 279.401 215.8 274.175 224.719 267.77C233.639 261.364 241.679 253.879 248.617 245.521C250.252 243.55 251.889 241.464 253.471 239.445C259.966 231.162 266.682 222.596 276.386 217.803C285.233 213.433 296.35 212.424 309.429 214.802C315.262 215.863 321.017 217.456 326.583 218.997C331.185 220.27 335.943 221.588 340.654 222.574C349.622 224.449 358.982 225.214 368.477 224.848C377.638 224.494 386.967 223.087 396.205 220.666C414.125 215.97 431.652 207.441 446.892 196L449.976 200.108C434.209 211.944 416.064 220.771 397.508 225.634C387.909 228.15 378.208 229.612 368.675 229.981C358.762 230.362 348.981 229.562 339.602 227.6C334.732 226.582 329.892 225.242 325.213 223.947C319.757 222.436 314.115 220.873 308.51 219.855C296.539 217.678 286.497 218.538 278.661 222.407C270.003 226.684 263.654 234.783 257.513 242.614C255.909 244.66 254.25 246.775 252.569 248.801C245.352 257.496 236.99 265.281 227.715 271.942C218.44 278.602 208.39 284.037 197.845 288.096Z" fill="#15BD68"/>
</svg>
