<svg width="31" height="27" viewBox="0 0 31 27" fill="none" xmlns="http://www.w3.org/2000/svg">
<rect width="30.8571" height="26.5714" rx="8.57143" fill="#F9F9F9"/>
<path d="M22.1787 13.4506C22.1787 9.33314 18.9837 6.53564 15.4287 6.53564C11.9112 6.53564 8.67871 9.27314 8.67871 13.4956C8.22871 13.7506 7.92871 14.2306 7.92871 14.7856V16.2856C7.92871 17.1106 8.60371 17.7856 9.42871 17.7856H10.1787V13.2106C10.1787 10.3081 12.5262 7.96064 15.4287 7.96064C18.3312 7.96064 20.6787 10.3081 20.6787 13.2106V18.5356H14.6787V20.0356H20.6787C21.5037 20.0356 22.1787 19.3606 22.1787 18.5356V17.6206C22.6212 17.3881 22.9287 16.9306 22.9287 16.3906V14.6656C22.9287 14.1406 22.6212 13.6831 22.1787 13.4506Z" fill="#147846"/>
<path d="M13.1787 14.7856C13.5929 14.7856 13.9287 14.4499 13.9287 14.0356C13.9287 13.6214 13.5929 13.2856 13.1787 13.2856C12.7645 13.2856 12.4287 13.6214 12.4287 14.0356C12.4287 14.4499 12.7645 14.7856 13.1787 14.7856Z" fill="#147846"/>
<path d="M17.6787 14.7856C18.0929 14.7856 18.4287 14.4499 18.4287 14.0356C18.4287 13.6214 18.0929 13.2856 17.6787 13.2856C17.2645 13.2856 16.9287 13.6214 16.9287 14.0356C16.9287 14.4499 17.2645 14.7856 17.6787 14.7856Z" fill="#147846"/>
<path d="M19.9286 12.5581C19.7497 11.5037 19.2036 10.5466 18.3869 9.85618C17.5702 9.16574 16.5355 8.78652 15.4661 8.78564C13.1936 8.78564 10.7486 10.6681 10.9436 13.6231C11.8684 13.2447 12.6852 12.6433 13.3212 11.8725C13.9572 11.1017 14.3926 10.1855 14.5886 9.20564C15.5711 11.1781 17.5886 12.5356 19.9286 12.5581Z" fill="#147846"/>
</svg>
