<svg width="42" height="36" viewBox="0 0 42 36" fill="none" xmlns="http://www.w3.org/2000/svg">
<rect width="42" height="36" rx="12" fill="#F9F9F9"/>
<path d="M17.25 24.75C16.8375 24.75 16.4843 24.603 16.1903 24.309C15.8963 24.015 15.7495 23.662 15.75 23.25V13.5C15.5375 13.5 15.3593 13.428 15.2153 13.284C15.0713 13.14 14.9995 12.962 15 12.75C15 12.5375 15.072 12.3593 15.216 12.2153C15.36 12.0713 15.538 11.9995 15.75 12H18.75C18.75 11.7875 18.822 11.6093 18.966 11.4653C19.11 11.3213 19.288 11.2495 19.5 11.25H22.5C22.7125 11.25 22.8908 11.322 23.0348 11.466C23.1788 11.61 23.2505 11.788 23.25 12H26.25C26.4625 12 26.6408 12.072 26.7848 12.216C26.9288 12.36 27.0005 12.538 27 12.75C27 12.9625 26.928 13.1408 26.784 13.2848C26.64 13.4288 26.462 13.5005 26.25 13.5V23.25C26.25 23.6625 26.103 24.0158 25.809 24.3098C25.515 24.6038 25.162 24.7505 24.75 24.75H17.25ZM18.75 21C18.75 21.2125 18.822 21.3908 18.966 21.5348C19.11 21.6788 19.288 21.7505 19.5 21.75C19.7125 21.75 19.8908 21.678 20.0348 21.534C20.1788 21.39 20.2505 21.212 20.25 21V15.75C20.25 15.5375 20.178 15.3593 20.034 15.2153C19.89 15.0713 19.712 14.9995 19.5 15C19.2875 15 19.1093 15.072 18.9653 15.216C18.8213 15.36 18.7495 15.538 18.75 15.75V21ZM21.75 21C21.75 21.2125 21.822 21.3908 21.966 21.5348C22.11 21.6788 22.288 21.7505 22.5 21.75C22.7125 21.75 22.8908 21.678 23.0348 21.534C23.1788 21.39 23.2505 21.212 23.25 21V15.75C23.25 15.5375 23.178 15.3593 23.034 15.2153C22.89 15.0713 22.712 14.9995 22.5 15C22.2875 15 22.1093 15.072 21.9653 15.216C21.8213 15.36 21.7495 15.538 21.75 15.75V21Z" fill="#020202"/>
</svg>
