<svg width="30" height="26" viewBox="0 0 30 26" fill="none" xmlns="http://www.w3.org/2000/svg">
<rect width="30" height="25.7143" rx="8.57143" fill="#F9F9F9"/>
<path d="M15 12.5001C14.5264 12.5001 14.0722 12.3119 13.7373 11.977C13.4024 11.6422 13.2143 11.188 13.2143 10.7144C13.2143 10.2408 13.4024 9.78655 13.7373 9.45166C14.0722 9.11678 14.5264 8.92864 15 8.92864C15.4736 8.92864 15.9278 9.11678 16.2627 9.45166C16.5976 9.78655 16.7857 10.2408 16.7857 10.7144C16.7857 10.9489 16.7395 11.1811 16.6498 11.3977C16.56 11.6144 16.4285 11.8112 16.2627 11.977C16.0969 12.1429 15.9 12.2744 15.6834 12.3641C15.4667 12.4539 15.2345 12.5001 15 12.5001ZM15 5.71436C13.6739 5.71436 12.4021 6.24114 11.4645 7.17882C10.5268 8.1165 10 9.38827 10 10.7144C10 14.4644 15 20.0001 15 20.0001C15 20.0001 20 14.4644 20 10.7144C20 9.38827 19.4732 8.1165 18.5355 7.17882C17.5979 6.24114 16.3261 5.71436 15 5.71436Z" fill="#147846"/>
</svg>
