<svg width="30" height="22" viewBox="0 0 30 22" fill="none" xmlns="http://www.w3.org/2000/svg">
<path fill-rule="evenodd" clip-rule="evenodd" d="M0.0263673 15.0538H29.8569V0.990799C29.8569 0.728023 29.7525 0.476009 29.5667 0.290198C29.3809 0.104387 29.1288 0 28.8661 0H0.990532C0.732399 0.00694154 0.487175 0.114385 0.307086 0.299449C0.126997 0.484513 0.0262739 0.732573 0.0263673 0.990799V15.0538Z" fill="#80EE98"/>
<path d="M2.74824 4.47459C2.65691 4.48739 2.57326 4.53267 2.51261 4.60213C2.45195 4.67159 2.41836 4.76058 2.41797 4.85279V10.1797C2.41836 10.2719 2.45195 10.3609 2.51261 10.4303C2.57326 10.4998 2.65691 10.5451 2.74824 10.5579C3.26016 10.6285 3.73499 10.8645 4.1004 11.2299C4.46582 11.5953 4.70181 12.0702 4.77245 12.5821C4.78525 12.6734 4.83054 12.7571 4.9 12.8177C4.96945 12.8784 5.05844 12.912 5.15066 12.9124H24.6843C24.7742 12.9126 24.8613 12.8812 24.9304 12.8238C24.9995 12.7664 25.0463 12.6865 25.0625 12.5981C25.1332 12.0861 25.3691 11.6113 25.7346 11.2459C26.1 10.8805 26.5748 10.6445 27.0867 10.5739C27.1781 10.5611 27.2617 10.5158 27.3224 10.4463C27.383 10.3769 27.4166 10.2879 27.417 10.1957V4.86877C27.4166 4.77656 27.383 4.68757 27.3224 4.61811C27.2617 4.54865 27.1781 4.50337 27.0867 4.49057C26.577 4.41882 26.1043 4.18384 25.7394 3.82083C25.3744 3.45782 25.137 2.98633 25.0625 2.47701C25.0508 2.38522 25.0058 2.30092 24.9361 2.24006C24.8664 2.1792 24.7768 2.14599 24.6843 2.14674H5.15066C5.05813 2.14599 4.96854 2.1792 4.89884 2.24006C4.82914 2.30092 4.78417 2.38522 4.77245 2.47701C4.69485 2.98343 4.45598 3.45132 4.09132 3.81119C3.72665 4.17105 3.25564 4.4037 2.74824 4.47459Z" fill="#C8F9CC"/>
<path d="M14.9415 3.60107C15.718 3.60107 16.477 3.83132 17.1226 4.26271C17.7683 4.69409 18.2715 5.30724 18.5686 6.0246C18.8657 6.74197 18.9435 7.53134 18.792 8.29289C18.6405 9.05444 18.2666 9.75397 17.7176 10.303C17.1685 10.8521 16.469 11.226 15.7074 11.3775C14.9459 11.5289 14.1565 11.4512 13.4392 11.154C12.7218 10.8569 12.1086 10.3537 11.6773 9.7081C11.2459 9.06249 11.0156 8.30345 11.0156 7.52698C11.017 6.4862 11.4311 5.48845 12.1671 4.7525C12.903 4.01656 13.9008 3.60248 14.9415 3.60107Z" fill="#80EE98"/>
<path d="M29.8305 15.0537H0V17.3709H29.8305V15.0537Z" fill="#C8F9CC"/>
<path d="M29.8305 17.3711H0V19.6883H29.8305V17.3711Z" fill="#80EE98"/>
<path fill-rule="evenodd" clip-rule="evenodd" d="M27.8381 15.0538H29.857V0.990799C29.857 0.728023 29.7526 0.476009 29.5668 0.290198C29.3809 0.104387 29.1289 0 28.8662 0H27.8008L27.8381 15.0538Z" fill="#57CC98"/>
<path d="M29.8781 15.0537H27.8379V17.3709H29.8781V15.0537Z" fill="#80EE98"/>
<path d="M29.8781 17.3711H27.8379V19.6883H29.8781V17.3711Z" fill="#57CC98"/>
<path fill-rule="evenodd" clip-rule="evenodd" d="M0.990532 22.0001H28.8874C29.1464 21.9945 29.393 21.8876 29.5742 21.7024C29.7555 21.5172 29.8569 21.2684 29.8569 21.0093V19.6829H0.0263673V21.0093C0.0262739 21.2675 0.126997 21.5155 0.307086 21.7006C0.487175 21.8857 0.732399 21.9931 0.990532 22.0001Z" fill="#C8F9CC"/>
<path fill-rule="evenodd" clip-rule="evenodd" d="M27.8438 22.0001H28.9091C29.1644 21.9891 29.4056 21.8798 29.5823 21.6952C29.759 21.5106 29.8575 21.2648 29.8573 21.0093V19.6829H27.8438V22.0001Z" fill="#80EE98"/>
<path fill-rule="evenodd" clip-rule="evenodd" d="M21.2274 7.99021H22.2927C22.434 7.99021 22.5695 7.93408 22.6694 7.83418C22.7693 7.73429 22.8254 7.5988 22.8254 7.45752C22.8254 7.31624 22.7693 7.18075 22.6694 7.08085C22.5695 6.98095 22.434 6.92483 22.2927 6.92483H21.2274C21.0861 6.92483 20.9506 6.98095 20.8507 7.08085C20.7508 7.18075 20.6947 7.31624 20.6947 7.45752C20.6947 7.5988 20.7508 7.73429 20.8507 7.83418C20.9506 7.93408 21.0861 7.99021 21.2274 7.99021ZM7.56394 7.99021H8.62931C8.77059 7.99021 8.90608 7.93408 9.00598 7.83418C9.10588 7.73429 9.162 7.5988 9.162 7.45752C9.162 7.31624 9.10588 7.18075 9.00598 7.08085C8.90608 6.98095 8.77059 6.92483 8.62931 6.92483H7.56394C7.42266 6.92483 7.28717 6.98095 7.18727 7.08085C7.08737 7.18075 7.03125 7.31624 7.03125 7.45752C7.03125 7.5988 7.08737 7.73429 7.18727 7.83418C7.28717 7.93408 7.42266 7.99021 7.56394 7.99021ZM14.409 5.412V5.28415C14.409 5.14287 14.4651 5.00738 14.565 4.90749C14.6649 4.80759 14.8004 4.75146 14.9417 4.75146C15.0829 4.75146 15.2184 4.80759 15.3183 4.90749C15.4182 5.00738 15.4743 5.14287 15.4743 5.28415V5.412C15.6407 5.48037 15.7926 5.5798 15.9218 5.70498C15.9717 5.7545 16.0114 5.81341 16.0384 5.87832C16.0655 5.94324 16.0794 6.01286 16.0794 6.08318C16.0794 6.1535 16.0655 6.22313 16.0384 6.28804C16.0114 6.35296 15.9717 6.41187 15.9218 6.46139C15.8723 6.51132 15.8134 6.55095 15.7485 6.57799C15.6835 6.60504 15.6139 6.61896 15.5436 6.61896C15.4733 6.61896 15.4037 6.60504 15.3387 6.57799C15.2738 6.55095 15.2149 6.51132 15.1654 6.46139C15.1064 6.40117 15.026 6.36671 14.9417 6.36551C14.8592 6.3669 14.7807 6.40063 14.7229 6.45942C14.6651 6.51821 14.6327 6.59735 14.6327 6.67979C14.632 6.72081 14.6395 6.76156 14.6547 6.79966C14.6699 6.83777 14.6925 6.87246 14.7213 6.90171C14.75 6.93097 14.7843 6.9542 14.8222 6.97006C14.86 6.98592 14.9006 6.99409 14.9417 6.99408C15.2654 6.98749 15.5811 7.09496 15.8335 7.29766C16.086 7.50037 16.2591 7.7854 16.3226 8.10288C16.3861 8.42036 16.3359 8.75005 16.1808 9.03426C16.0258 9.31848 15.7757 9.5391 15.4743 9.65752V9.78004C15.4743 9.92131 15.4182 10.0568 15.3183 10.1567C15.2184 10.2566 15.0829 10.3127 14.9417 10.3127C14.8004 10.3127 14.6649 10.2566 14.565 10.1567C14.4651 10.0568 14.409 9.92131 14.409 9.78004V9.65752C14.2456 9.58707 14.0973 9.48579 13.9722 9.35921C13.873 9.25941 13.8173 9.1244 13.8173 8.98367C13.8173 8.84294 13.873 8.70793 13.9722 8.60812C14.0217 8.5582 14.0806 8.51857 14.1455 8.49152C14.2104 8.46448 14.2801 8.45055 14.3504 8.45055C14.4207 8.45055 14.4903 8.46448 14.5552 8.49152C14.6201 8.51857 14.6791 8.5582 14.7286 8.60812C14.777 8.66085 14.8436 8.69322 14.915 8.69868H14.9417C15.0264 8.69868 15.1077 8.66501 15.1677 8.60507C15.2276 8.54513 15.2613 8.46383 15.2613 8.37907C15.2613 8.2943 15.2276 8.21301 15.1677 8.15307C15.1077 8.09313 15.0264 8.05945 14.9417 8.05945C14.618 8.06604 14.3023 7.95858 14.0498 7.75587C13.7974 7.55316 13.6242 7.26813 13.5607 6.95065C13.4972 6.63318 13.5474 6.30348 13.7025 6.01927C13.8576 5.73506 14.1076 5.51444 14.409 5.39602V5.412Z" fill="#57CC98"/>
</svg>
