<svg width="67" height="14" viewBox="0 0 67 14" fill="none" xmlns="http://www.w3.org/2000/svg">
<path d="M4.26181 3.68021L3.71094 5.70779L6.86405 3.66867L4.80185 11.3628L6.89623 11.3645L9.94267 0" fill="#3395FF"/>
<path d="M0.867413 8.13009L0 11.3647H4.29265L6.04916 4.7846L0.867413 8.13009ZM15.7785 5.28231C15.6736 5.6723 15.4714 5.95876 15.1699 6.14168C14.8691 6.32426 14.447 6.4159 13.902 6.4159H12.1707L12.7786 4.14943H14.5099C15.0542 4.14943 15.4281 4.24037 15.6309 4.42574C15.8338 4.61112 15.8828 4.89443 15.7785 5.28616M17.5711 5.2372C17.7914 4.41875 17.7005 3.78917 17.2975 3.34847C16.8953 2.91127 16.1895 2.69092 15.1822 2.69092H11.3183L8.99242 11.3685H10.8696L11.807 7.87091H13.0381C13.3144 7.87091 13.532 7.91638 13.6908 8.00382C13.8499 8.09476 13.9433 8.25215 13.972 8.4795L14.3071 11.3685H16.3182L15.9922 8.67537C15.9258 8.07378 15.6505 7.72051 15.1668 7.61559C15.7834 7.43721 16.3 7.13991 16.7162 6.72719C17.1296 6.31749 17.4248 5.80399 17.5711 5.24069M22.1341 8.26265C21.9767 8.85025 21.7353 9.29445 21.409 9.60574C21.0823 9.91703 20.692 10.0709 20.2366 10.0709C19.7728 10.0709 19.4584 9.92053 19.2922 9.61623C19.1258 9.31194 19.1202 8.87124 19.2748 8.29413C19.4294 7.71702 19.6759 7.26582 20.0152 6.94054C20.3545 6.61526 20.7511 6.45262 21.2065 6.45262C21.6612 6.45262 21.9725 6.61002 22.1299 6.92235C22.2908 7.23609 22.2943 7.68484 22.1369 8.26894L22.1341 8.26265ZM22.9567 5.19173L22.7217 6.06963C22.6202 5.75484 22.4233 5.50302 22.1323 5.31414C21.8406 5.12877 21.4797 5.03433 21.0491 5.03433C20.521 5.03433 20.0138 5.17074 19.5276 5.44356C19.0415 5.71637 18.6148 6.10111 18.251 6.59777C17.8872 7.09444 17.6214 7.65756 17.45 8.29063C17.2822 8.9272 17.2472 9.48332 17.3486 9.966C17.4535 10.4522 17.6739 10.8229 18.0132 11.0817C18.3559 11.3441 18.7931 11.4735 19.3283 11.4735C19.7535 11.4756 20.1739 11.3837 20.5594 11.2042C20.9406 11.0322 21.2796 10.7792 21.5528 10.4627L21.3079 11.3776H23.1232L24.7807 5.19487H22.962L22.9567 5.19173ZM31.3038 5.19173H26.0248L25.6558 6.56979H28.7275L24.6667 10.0779L24.3197 11.372H29.7691L30.1381 9.99398H26.8468L30.9698 6.43339M35.9504 8.25215C35.7871 8.86074 35.5447 9.31823 35.2247 9.61623C34.9046 9.91703 34.5171 10.0674 34.0621 10.0674C33.1107 10.0674 32.798 9.46234 33.1226 8.25215C33.2835 7.65056 33.5269 7.19832 33.8522 6.89367C34.1775 6.58798 34.5717 6.43548 35.0351 6.43548C35.4898 6.43548 35.7969 6.58693 35.955 6.89193C36.1131 7.19622 36.1117 7.64986 35.9504 8.25146M37.013 5.42432C36.595 5.16409 36.0616 5.03398 35.4111 5.03398C34.7525 5.03398 34.1428 5.16339 33.5818 5.42222C33.0231 5.67943 32.5321 6.06337 32.1478 6.54356C31.7526 7.02973 31.4682 7.59985 31.2937 8.25041C31.1223 8.89852 31.1013 9.46758 31.2342 9.9548C31.3671 10.441 31.6469 10.8152 32.0667 11.074C32.4899 11.335 33.0285 11.4647 33.6896 11.4647C34.3401 11.4647 34.9452 11.3339 35.5013 11.0737C36.0575 10.8121 36.5331 10.4406 36.9284 9.95096C37.3236 9.46339 37.6069 8.89467 37.7818 8.24411C37.9567 7.59355 37.9777 7.02554 37.8447 6.53727C37.7118 6.05109 37.4355 5.67685 37.0193 5.41627M43.4934 6.84331L43.9586 5.16095C43.8012 5.0805 43.5949 5.03853 43.336 5.03853C42.9198 5.03853 42.5211 5.14136 42.1363 5.34982C41.8055 5.5268 41.5242 5.77653 41.2864 6.08922L41.5277 5.18333L41.0007 5.18543H39.7065L38.0382 11.3657H39.879L40.7446 8.13498C40.8705 7.66525 41.0972 7.29555 41.4242 7.03323C41.7495 6.76986 42.1552 6.638 42.6449 6.638C42.9457 6.638 43.2255 6.7069 43.4913 6.84436M48.6154 8.28188C48.458 8.85899 48.2201 9.2997 47.8948 9.60399C47.5696 9.90968 47.1778 10.0622 46.7231 10.0622C46.2684 10.0622 45.9572 9.90828 45.7928 9.60049C45.6249 9.29095 45.6214 8.845 45.7788 8.2588C45.9362 7.67295 46.1775 7.2235 46.5098 6.91221C46.8421 6.59847 47.2338 6.44178 47.6885 6.44178C48.1362 6.44178 48.437 6.60267 48.5979 6.92795C48.7588 7.25323 48.7623 7.70443 48.6077 8.28153M49.8948 5.43446C49.5538 5.16165 49.1183 5.02524 48.5902 5.02524C48.1274 5.02524 47.6864 5.13017 47.2681 5.34212C46.8501 5.55373 46.5108 5.84229 46.2503 6.20744L46.2566 6.16547L46.5654 5.18263H44.7676L44.3094 6.89297L44.2954 6.95243L42.4067 13.9981H44.25L45.2013 10.4515C45.2957 10.767 45.4881 11.0146 45.7819 11.1937C46.0757 11.372 46.4384 11.4605 46.8697 11.4605C47.4048 11.4605 47.9155 11.3311 48.3999 11.0723C48.8861 10.8128 49.3058 10.4392 49.6625 9.95655C50.0193 9.47388 50.2841 8.91426 50.453 8.28119C50.6244 7.64706 50.6594 7.0815 50.5614 6.58658C50.4618 6.09097 50.2411 5.70728 49.9004 5.43586M56.009 8.2567C55.8516 8.84081 55.6103 9.2885 55.285 9.5963C54.9597 9.90619 54.568 10.0604 54.1133 10.0604C53.6481 10.0604 53.3333 9.91003 53.1689 9.60574C53.001 9.30144 52.9975 8.86074 53.1514 8.28363C53.3053 7.70652 53.5509 7.25533 53.8901 6.93005C54.2294 6.60477 54.6264 6.44248 55.0818 6.44248C55.5365 6.44248 55.8443 6.59987 56.0052 6.91116C56.166 7.2235 56.1671 7.67225 56.0104 8.25775L56.009 8.2567ZM56.8309 5.18403L56.5956 6.06194C56.4941 5.7454 56.2983 5.49357 56.008 5.30645C55.7141 5.11967 55.3539 5.02664 54.9237 5.02664C54.3955 5.02664 53.8856 5.16305 53.3987 5.43586C52.9125 5.70868 52.4858 6.09132 52.1221 6.58658C51.7583 7.08185 51.4925 7.64636 51.3211 8.27944C51.1515 8.91496 51.1183 9.47213 51.2197 9.9569C51.3222 10.4396 51.5429 10.8124 51.8842 11.0726C52.2249 11.3315 52.6642 11.4623 53.1994 11.4623C53.6296 11.4623 54.0405 11.3727 54.4305 11.193C54.8108 11.0203 55.1489 10.7669 55.4214 10.4504L55.1766 11.3661H56.9918L58.649 5.18578H56.8337L56.8309 5.18403ZM66.27 5.18613L66.2711 5.18438H65.1553C65.1196 5.18438 65.0882 5.18613 65.0556 5.18683H64.4768L64.1795 5.59955L64.106 5.69748L64.0745 5.74645L61.7224 9.02303L61.2362 5.18613H59.3097L60.2856 11.0167L58.131 14.0002H60.0512L60.5724 13.2611C60.5871 13.2394 60.6003 13.2212 60.6178 13.1982L61.2264 12.3342L61.2439 12.3098L63.9696 8.44487L66.2676 5.19208L66.2711 5.18998H66.27V5.18613Z" fill="#072654"/>
</svg>
