<svg width="24" height="24" viewBox="0 0 24 24" fill="none" xmlns="http://www.w3.org/2000/svg">
<path d="M11.7295 10.0952V7.80952H9.41063V6.28571H11.7295V4H13.2754V6.28571H15.5942V7.80952H13.2754V10.0952H11.7295ZM8.63768 20C8.21256 20 7.8485 19.8507 7.54551 19.552C7.24251 19.2533 7.09127 18.8947 7.09179 18.4762C7.09179 18.0571 7.24328 17.6983 7.54628 17.3996C7.84928 17.101 8.21308 16.9519 8.63768 16.9524C9.0628 16.9524 9.42686 17.1017 9.72986 17.4004C10.0329 17.699 10.1841 18.0576 10.1836 18.4762C10.1836 18.8952 10.0321 19.2541 9.72908 19.5528C9.42609 19.8514 9.06229 20.0005 8.63768 20ZM16.3671 20C15.942 20 15.578 19.8507 15.275 19.552C14.972 19.2533 14.8207 18.8947 14.8213 18.4762C14.8213 18.0571 14.9728 17.6983 15.2757 17.3996C15.5787 17.101 15.9425 16.9519 16.3671 16.9524C16.7923 16.9524 17.1563 17.1017 17.4593 17.4004C17.7623 17.699 17.9136 18.0576 17.913 18.4762C17.913 18.8952 17.7615 19.2541 17.4586 19.5528C17.1556 19.8514 16.7918 20.0005 16.3671 20ZM17.913 16.1905H6.02899L8.3285 12.0762L5.54589 6.28571H4V4.7619H6.5314L9.81642 11.619H15.2464L18.2415 6.28571H20L16.1546 13.1429H9.48792L8.63768 14.6667H17.913V16.1905Z" fill="#676D75"/>
</svg>
