<svg width="12" height="13" viewBox="0 0 12 13" fill="none" xmlns="http://www.w3.org/2000/svg">
<path d="M5.7971 5.25478V3.54049H4.05797V2.39764H5.7971V0.68335H6.95652V2.39764H8.69565V3.54049H6.95652V5.25478H5.7971ZM3.47826 12.6833C3.15942 12.6833 2.88638 12.5713 2.65913 12.3473C2.43188 12.1233 2.31845 11.8544 2.31884 11.5405C2.31884 11.2262 2.43246 10.9571 2.65971 10.7331C2.88696 10.5091 3.15981 10.3973 3.47826 10.3976C3.7971 10.3976 4.07014 10.5096 4.29739 10.7336C4.52464 10.9576 4.63807 11.2266 4.63768 11.5405C4.63768 11.8548 4.52406 12.1239 4.29681 12.3479C4.06956 12.5719 3.79671 12.6837 3.47826 12.6833ZM9.27536 12.6833C8.95652 12.6833 8.68348 12.5713 8.45623 12.3473C8.22898 12.1233 8.11556 11.8544 8.11594 11.5405C8.11594 11.2262 8.22956 10.9571 8.45681 10.7331C8.68406 10.5091 8.95691 10.3973 9.27536 10.3976C9.5942 10.3976 9.86725 10.5096 10.0945 10.7336C10.3217 10.9576 10.4352 11.2266 10.4348 11.5405C10.4348 11.8548 10.3212 12.1239 10.0939 12.3479C9.86667 12.5719 9.59382 12.6837 9.27536 12.6833ZM10.4348 9.82621H1.52174L3.24638 6.74049L1.15942 2.39764H0V1.25478H1.89855L4.36232 6.39763H8.43478L10.6812 2.39764H12L9.11594 7.54049H4.11594L3.47826 8.68335H10.4348V9.82621Z" fill="white"/>
</svg>
