<svg width="48" height="48" viewBox="0 0 48 48" fill="none" xmlns="http://www.w3.org/2000/svg">
<rect x="0.5" y="0.683228" width="47" height="46" rx="23" fill="#147846"/>
<path d="M23.7971 22.2547V20.5404H22.058V19.3975H23.7971V17.6832H24.9565V19.3975H26.6957V20.5404H24.9565V22.2547H23.7971ZM21.4783 29.6832C21.1594 29.6832 20.8864 29.5712 20.6591 29.3472C20.4319 29.1232 20.3185 28.8543 20.3188 28.5404C20.3188 28.2261 20.4325 27.9569 20.6597 27.7329C20.887 27.5089 21.1598 27.3971 21.4783 27.3975C21.7971 27.3975 22.0701 27.5095 22.2974 27.7335C22.5246 27.9575 22.6381 28.2265 22.6377 28.5404C22.6377 28.8547 22.5241 29.1238 22.2968 29.3478C22.0696 29.5718 21.7967 29.6836 21.4783 29.6832ZM27.2754 29.6832C26.9565 29.6832 26.6835 29.5712 26.4562 29.3472C26.229 29.1232 26.1156 28.8543 26.1159 28.5404C26.1159 28.2261 26.2296 27.9569 26.4568 27.7329C26.6841 27.5089 26.9569 27.3971 27.2754 27.3975C27.5942 27.3975 27.8672 27.5095 28.0945 27.7335C28.3217 27.9575 28.4352 28.2265 28.4348 28.5404C28.4348 28.8547 28.3212 29.1238 28.0939 29.3478C27.8667 29.5718 27.5938 29.6836 27.2754 29.6832ZM28.4348 26.8261H19.5217L21.2464 23.7404L19.1594 19.3975H18V18.2547H19.8986L22.3623 23.3975H26.4348L28.6812 19.3975H30L27.1159 24.5404H22.1159L21.4783 25.6832H28.4348V26.8261Z" fill="white"/>
<rect x="0.5" y="0.683228" width="47" height="46" rx="23" stroke="white"/>
</svg>
