<svg width="20" height="20" viewBox="0 0 20 20" fill="none" xmlns="http://www.w3.org/2000/svg">
<path d="M5.83301 17.5C5.37468 17.5 4.98218 17.3367 4.65551 17.01C4.32884 16.6833 4.16579 16.2911 4.16634 15.8333V5C3.93023 5 3.73218 4.92 3.57218 4.76C3.41218 4.6 3.33246 4.40223 3.33301 4.16667C3.33301 3.93056 3.41301 3.7325 3.57301 3.5725C3.73301 3.4125 3.93079 3.33278 4.16634 3.33334H7.49968C7.49968 3.09723 7.57968 2.89917 7.73968 2.73917C7.89968 2.57917 8.09746 2.49945 8.33301 2.5H11.6663C11.9025 2.5 12.1005 2.58 12.2605 2.74C12.4205 2.9 12.5002 3.09778 12.4997 3.33334H15.833C16.0691 3.33334 16.2672 3.41334 16.4272 3.57334C16.5872 3.73334 16.6669 3.93111 16.6663 4.16667C16.6663 4.40278 16.5863 4.60084 16.4263 4.76084C16.2663 4.92084 16.0686 5.00056 15.833 5V15.8333C15.833 16.2917 15.6697 16.6842 15.343 17.0108C15.0163 17.3375 14.6241 17.5006 14.1663 17.5H5.83301ZM7.49968 13.3333C7.49968 13.5694 7.57968 13.7675 7.73968 13.9275C7.89968 14.0875 8.09746 14.1672 8.33301 14.1667C8.56912 14.1667 8.76718 14.0867 8.92718 13.9267C9.08718 13.7667 9.1669 13.5689 9.16634 13.3333V7.5C9.16634 7.26389 9.08634 7.06584 8.92634 6.90584C8.76634 6.74584 8.56857 6.66611 8.33301 6.66667C8.0969 6.66667 7.89884 6.74667 7.73884 6.90667C7.57884 7.06667 7.49912 7.26445 7.49968 7.5V13.3333ZM10.833 13.3333C10.833 13.5694 10.913 13.7675 11.073 13.9275C11.233 14.0875 11.4308 14.1672 11.6663 14.1667C11.9025 14.1667 12.1005 14.0867 12.2605 13.9267C12.4205 13.7667 12.5002 13.5689 12.4997 13.3333V7.5C12.4997 7.26389 12.4197 7.06584 12.2597 6.90584C12.0997 6.74584 11.9019 6.66611 11.6663 6.66667C11.4302 6.66667 11.2322 6.74667 11.0722 6.90667C10.9122 7.06667 10.8325 7.26445 10.833 7.5V13.3333Z" fill="#FF0006"/>
</svg>
