<svg width="18" height="18" viewBox="0 0 18 18" fill="none" xmlns="http://www.w3.org/2000/svg">
<path d="M5.25 15.75C4.8375 15.75 4.48425 15.603 4.19025 15.309C3.89625 15.015 3.7495 14.662 3.75 14.25V4.5C3.5375 4.5 3.35925 4.428 3.21525 4.284C3.07125 4.14 2.9995 3.962 3 3.75C3 3.5375 3.072 3.35925 3.216 3.21525C3.36 3.07125 3.538 2.9995 3.75 3H6.75C6.75 2.7875 6.822 2.60925 6.966 2.46525C7.11 2.32125 7.288 2.2495 7.5 2.25H10.5C10.7125 2.25 10.8908 2.322 11.0348 2.466C11.1788 2.61 11.2505 2.788 11.25 3H14.25C14.4625 3 14.6408 3.072 14.7848 3.216C14.9288 3.36 15.0005 3.538 15 3.75C15 3.9625 14.928 4.14075 14.784 4.28475C14.64 4.42875 14.462 4.5005 14.25 4.5V14.25C14.25 14.6625 14.103 15.0158 13.809 15.3098C13.515 15.6038 13.162 15.7505 12.75 15.75H5.25ZM6.75 12C6.75 12.2125 6.822 12.3908 6.966 12.5348C7.11 12.6788 7.288 12.7505 7.5 12.75C7.7125 12.75 7.89075 12.678 8.03475 12.534C8.17875 12.39 8.2505 12.212 8.25 12V6.75C8.25 6.5375 8.178 6.35925 8.034 6.21525C7.89 6.07125 7.712 5.9995 7.5 6C7.2875 6 7.10925 6.072 6.96525 6.216C6.82125 6.36 6.7495 6.538 6.75 6.75V12ZM9.75 12C9.75 12.2125 9.822 12.3908 9.966 12.5348C10.11 12.6788 10.288 12.7505 10.5 12.75C10.7125 12.75 10.8908 12.678 11.0348 12.534C11.1788 12.39 11.2505 12.212 11.25 12V6.75C11.25 6.5375 11.178 6.35925 11.034 6.21525C10.89 6.07125 10.712 5.9995 10.5 6C10.2875 6 10.1093 6.072 9.96525 6.216C9.82125 6.36 9.7495 6.538 9.75 6.75V12Z" fill="#020202"/>
</svg>
