<svg width="15" height="16" viewBox="0 0 15 16" fill="none" xmlns="http://www.w3.org/2000/svg">
<path d="M1.875 14.125V1.875C1.89583 1.875 1.92458 1.8775 1.96125 1.8825C1.99792 1.8875 2.04208 1.91625 2.09375 1.96875L2.59375 2.46875C2.65625 2.53125 2.72917 2.5625 2.8125 2.5625C2.89583 2.5625 2.96875 2.53125 3.03125 2.46875L3.53125 1.96875C3.59375 1.90625 3.66667 1.875 3.75 1.875C3.83333 1.875 3.90625 1.90625 3.96875 1.96875L4.46875 2.46875C4.53125 2.53125 4.60417 2.5625 4.6875 2.5625C4.77083 2.5625 4.84375 2.53125 4.90625 2.46875L5.40625 1.96875C5.46875 1.90625 5.54167 1.875 5.625 1.875C5.70833 1.875 5.78125 1.90625 5.84375 1.96875L6.34375 2.46875C6.40625 2.53125 6.47917 2.5625 6.5625 2.5625C6.64583 2.5625 6.71875 2.53125 6.78125 2.46875L7.28125 1.96875C7.34375 1.90625 7.41667 1.875 7.5 1.875C7.58333 1.875 7.65625 1.90625 7.71875 1.96875L8.21875 2.46875C8.28125 2.53125 8.35417 2.5625 8.4375 2.5625C8.52083 2.5625 8.59375 2.53125 8.65625 2.46875L9.15625 1.96875C9.21875 1.90625 9.29167 1.875 9.375 1.875C9.45833 1.875 9.53125 1.90625 9.59375 1.96875L10.0938 2.46875C10.1562 2.53125 10.2292 2.5625 10.3125 2.5625C10.3958 2.5625 10.4688 2.53125 10.5312 2.46875L11.0312 1.96875C11.0938 1.90625 11.1667 1.875 11.25 1.875C11.3333 1.875 11.4062 1.90625 11.4688 1.96875L11.9688 2.46875C12.0312 2.53125 12.1042 2.5625 12.1875 2.5625C12.2708 2.5625 12.3438 2.53125 12.4062 2.46875L12.9062 1.96875C12.9583 1.91667 13.0027 1.88813 13.0394 1.88313C13.076 1.87813 13.1046 1.87542 13.125 1.875V14.125C13.1042 14.125 13.0756 14.1223 13.0394 14.1169C13.0031 14.1115 12.9587 14.0829 12.9062 14.0312L12.4062 13.5312C12.3438 13.4688 12.2708 13.4375 12.1875 13.4375C12.1042 13.4375 12.0312 13.4688 11.9688 13.5312L11.4688 14.0312C11.4062 14.0937 11.3333 14.125 11.25 14.125C11.1667 14.125 11.0938 14.0937 11.0312 14.0312L10.5312 13.5312C10.4688 13.4688 10.3958 13.4375 10.3125 13.4375C10.2292 13.4375 10.1562 13.4688 10.0938 13.5312L9.59375 14.0312C9.53125 14.0937 9.45833 14.125 9.375 14.125C9.29167 14.125 9.21875 14.0937 9.15625 14.0312L8.65625 13.5312C8.59375 13.4688 8.52083 13.4375 8.4375 13.4375C8.35417 13.4375 8.28125 13.4688 8.21875 13.5312L7.71875 14.0312C7.65625 14.0937 7.58333 14.125 7.5 14.125C7.41667 14.125 7.34375 14.0937 7.28125 14.0312L6.78125 13.5312C6.71875 13.4688 6.64583 13.4375 6.5625 13.4375C6.47917 13.4375 6.40625 13.4688 6.34375 13.5312L5.84375 14.0312C5.78125 14.0937 5.70833 14.125 5.625 14.125C5.54167 14.125 5.46875 14.0937 5.40625 14.0312L4.90625 13.5312C4.84375 13.4688 4.77083 13.4375 4.6875 13.4375C4.60417 13.4375 4.53125 13.4688 4.46875 13.5312L3.96875 14.0312C3.90625 14.0937 3.83333 14.125 3.75 14.125C3.66667 14.125 3.59375 14.0937 3.53125 14.0312L3.03125 13.5312C2.96875 13.4688 2.89583 13.4375 2.8125 13.4375C2.72917 13.4375 2.65625 13.4688 2.59375 13.5312L2.09375 14.0312C2.04167 14.0833 1.99729 14.1121 1.96063 14.1175C1.92396 14.1229 1.89542 14.1254 1.875 14.125ZM4.375 11.125H10.625C10.8021 11.125 10.9506 11.065 11.0706 10.945C11.1906 10.825 11.2504 10.6767 11.25 10.5C11.25 10.3229 11.19 10.1744 11.07 10.0544C10.95 9.93437 10.8017 9.87458 10.625 9.875H4.375C4.19792 9.875 4.04938 9.935 3.92938 10.055C3.80938 10.175 3.74958 10.3233 3.75 10.5C3.75 10.6771 3.81 10.8256 3.93 10.9456C4.05 11.0656 4.19833 11.1254 4.375 11.125ZM4.375 8.625H10.625C10.8021 8.625 10.9506 8.565 11.0706 8.445C11.1906 8.325 11.2504 8.17667 11.25 8C11.25 7.82292 11.19 7.67438 11.07 7.55437C10.95 7.43437 10.8017 7.37458 10.625 7.375H4.375C4.19792 7.375 4.04938 7.435 3.92938 7.555C3.80938 7.675 3.74958 7.82333 3.75 8C3.75 8.17708 3.81 8.32563 3.93 8.44563C4.05 8.56563 4.19833 8.62542 4.375 8.625ZM4.375 6.125H10.625C10.8021 6.125 10.9506 6.065 11.0706 5.945C11.1906 5.825 11.2504 5.67667 11.25 5.5C11.25 5.32292 11.19 5.17437 11.07 5.05437C10.95 4.93438 10.8017 4.87458 10.625 4.875H4.375C4.19792 4.875 4.04938 4.935 3.92938 5.055C3.80938 5.175 3.74958 5.32333 3.75 5.5C3.75 5.67708 3.81 5.82563 3.93 5.94563C4.05 6.06563 4.19833 6.12542 4.375 6.125Z" fill="#147846"/>
</svg>
