<svg width="18" height="18" viewBox="0 0 18 18" fill="none" xmlns="http://www.w3.org/2000/svg">
<path d="M9 8.50007C8.5264 8.50007 8.0722 8.31193 7.73731 7.97705C7.40242 7.64216 7.21429 7.18796 7.21429 6.71436C7.21429 6.24075 7.40242 5.78655 7.73731 5.45166C8.0722 5.11678 8.5264 4.92864 9 4.92864C9.4736 4.92864 9.9278 5.11678 10.2627 5.45166C10.5976 5.78655 10.7857 6.24075 10.7857 6.71436C10.7857 6.94886 10.7395 7.18107 10.6498 7.39772C10.56 7.61437 10.4285 7.81123 10.2627 7.97705C10.0969 8.14287 9.90002 8.2744 9.68336 8.36414C9.46671 8.45388 9.2345 8.50007 9 8.50007ZM9 1.71436C7.67392 1.71436 6.40215 2.24114 5.46447 3.17882C4.52678 4.1165 4 5.38827 4 6.71436C4 10.4644 9 16.0001 9 16.0001C9 16.0001 14 10.4644 14 6.71436C14 5.38827 13.4732 4.1165 12.5355 3.17882C11.5979 2.24114 10.3261 1.71436 9 1.71436Z" fill="#147846"/>
</svg>
