<svg width="12" height="13" viewBox="0 0 12 13" fill="none" xmlns="http://www.w3.org/2000/svg">
<path d="M5.7971 5.25466V3.54037H4.05797V2.39751H5.7971V0.683228H6.95652V2.39751H8.69565V3.54037H6.95652V5.25466H5.7971ZM3.47826 12.6832C3.15942 12.6832 2.88638 12.5712 2.65913 12.3472C2.43188 12.1232 2.31845 11.8543 2.31884 11.5404C2.31884 11.2261 2.43246 10.9569 2.65971 10.7329C2.88696 10.5089 3.15981 10.3971 3.47826 10.3975C3.7971 10.3975 4.07014 10.5095 4.29739 10.7335C4.52464 10.9575 4.63807 11.2265 4.63768 11.5404C4.63768 11.8547 4.52406 12.1238 4.29681 12.3478C4.06956 12.5718 3.79671 12.6836 3.47826 12.6832ZM9.27536 12.6832C8.95652 12.6832 8.68348 12.5712 8.45623 12.3472C8.22899 12.1232 8.11556 11.8543 8.11594 11.5404C8.11594 11.2261 8.22957 10.9569 8.45681 10.7329C8.68406 10.5089 8.95691 10.3971 9.27536 10.3975C9.5942 10.3975 9.86725 10.5095 10.0945 10.7335C10.3217 10.9575 10.4352 11.2265 10.4348 11.5404C10.4348 11.8547 10.3212 12.1238 10.0939 12.3478C9.86667 12.5718 9.59382 12.6836 9.27536 12.6832ZM10.4348 9.82608H1.52174L3.24638 6.74037L1.15942 2.39751H0V1.25466H1.89855L4.36232 6.39751H8.43478L10.6812 2.39751H12L9.11594 7.54037H4.11594L3.47826 8.68323H10.4348V9.82608Z" fill="white"/>
</svg>
